<?xml version="1.0" standalone="no"?>
<!DOCTYPE svg PUBLIC "-//W3C//DTD SVG 20010904//EN"
 "http://www.w3.org/TR/2001/REC-SVG-20010904/DTD/svg10.dtd">
<svg version="1.0" xmlns="http://www.w3.org/2000/svg"
 width="1668.000000pt" height="1668.000000pt" viewBox="0 0 1668.000000 1668.000000"
 preserveAspectRatio="xMidYMid meet">

<g transform="translate(0.000000,1668.000000) scale(0.100000,-0.100000)"
fill="#000000" stroke="none">
<path d="M5059 15100 c-209 -20 -355 -62 -569 -165 -102 -49 -195 -85 -270
-106 -358 -97 -500 -150 -651 -242 -104 -63 -445 -296 -559 -383 -268 -202
-466 -398 -585 -579 -50 -77 -161 -276 -231 -416 -212 -421 -344 -863 -344
-1148 0 -100 34 -281 74 -396 42 -121 218 -560 248 -618 46 -91 138 -207 311
-392 28 -30 67 -93 67 -108 0 -7 -17 -23 -39 -35 -74 -42 -266 -186 -339 -256
-99 -94 -178 -191 -300 -366 -289 -417 -437 -724 -652 -1355 -50 -148 -105
-308 -122 -355 -33 -92 -124 -287 -183 -390 -140 -246 -253 -626 -304 -1030
-57 -442 -65 -542 -65 -800 -1 -205 3 -276 17 -360 47 -268 78 -351 283 -765
178 -360 239 -439 663 -858 218 -215 393 -370 601 -533 165 -129 362 -273 454
-331 256 -163 815 -413 1078 -482 195 -52 280 -62 625 -71 177 -5 363 -12 413
-16 l92 -7 -6 -26 c-18 -82 -37 -231 -43 -331 -6 -110 -8 -119 -50 -203 -50
-100 -61 -157 -43 -213 34 -102 119 -150 229 -128 35 7 126 84 136 114 4 11
34 33 70 50 118 56 148 113 177 333 l22 162 58 66 c46 52 71 72 121 92 58 24
75 26 242 29 l180 3 90 46 c50 25 89 49 88 54 -3 11 -427 116 -623 154 -85 16
-198 34 -250 40 -52 6 -131 21 -175 35 -69 20 -440 84 -591 101 -28 3 -77 12
-109 20 -32 9 -124 22 -204 30 -305 29 -483 80 -871 245 -335 143 -568 275
-770 436 -101 81 -851 823 -954 944 -103 120 -138 172 -194 285 -185 371 -236
673 -213 1240 7 154 16 433 21 620 8 303 20 473 60 840 23 212 53 298 192 548
44 78 115 216 160 307 190 391 222 451 296 565 195 299 711 956 960 1220 102
108 131 164 133 255 4 199 6 184 -36 266 -22 42 -75 127 -119 188 -122 171
-173 252 -196 314 -26 67 -156 572 -177 682 -15 84 -7 209 27 397 34 182 118
447 229 718 43 105 89 218 101 253 14 37 44 89 74 126 28 35 121 150 207 257
86 107 172 211 190 231 19 20 122 98 229 174 216 152 506 312 690 382 58 21
177 72 265 112 276 125 370 161 525 199 160 39 285 54 414 48 174 -6 227 -26
546 -197 410 -219 420 -226 504 -339 36 -47 82 -104 103 -127 21 -22 55 -79
77 -125 21 -46 45 -95 53 -109 28 -51 64 -134 84 -199 25 -82 49 -194 43 -201
-6 -5 -181 54 -328 111 -128 51 -175 52 -221 6 -21 -21 -36 -48 -41 -73 -7
-38 2 -170 30 -429 8 -71 19 -179 26 -240 32 -317 70 -517 134 -694 14 -39 26
-74 26 -76 0 -2 -30 -24 -67 -48 -138 -92 -342 -276 -460 -414 -204 -239 -388
-631 -457 -977 -23 -113 -21 -299 4 -406 70 -291 317 -588 710 -851 200 -134
372 -206 675 -284 77 -20 183 -49 236 -66 l96 -29 6 -46 c7 -69 54 -102 123
-89 42 7 106 69 254 245 258 306 423 532 436 598 4 18 10 34 14 37 4 3 25 -26
46 -63 24 -40 77 -105 134 -163 197 -197 446 -324 730 -370 107 -18 447 -18
587 -1 57 7 192 17 301 21 277 11 292 20 338 198 19 75 27 139 33 273 5 96 12
182 15 190 8 21 -17 55 -33 45 -7 -4 -33 -39 -58 -79 -25 -39 -65 -92 -89
-117 -35 -35 -52 -66 -78 -138 l-33 -93 -394 0 c-326 -1 -413 2 -502 16 -150
24 -264 59 -383 117 -162 79 -265 163 -403 328 -24 29 -54 57 -67 63 -14 7
-24 21 -26 37 -5 43 -31 31 -132 -57 -52 -46 -122 -102 -157 -125 -111 -73
-477 -506 -598 -707 -18 -30 -35 -57 -37 -59 -4 -4 -28 5 -199 77 -336 141
-548 285 -821 557 -477 476 -546 732 -339 1263 124 317 307 563 585 787 97 78
170 116 255 130 116 20 164 74 152 167 -6 48 -53 101 -99 114 -28 8 -34 18
-54 79 -63 192 -105 387 -163 760 -22 143 -43 275 -47 293 -4 17 -4 32 -1 32
2 0 65 -29 138 -65 219 -105 450 -172 752 -217 191 -28 528 -31 665 -5 172 33
307 86 537 211 55 30 111 57 125 61 14 3 81 30 150 60 103 44 148 56 255 74
270 43 369 52 674 62 272 8 321 8 375 -6 81 -20 226 -91 302 -148 68 -50 184
-178 254 -280 25 -36 60 -75 78 -88 18 -12 45 -43 59 -68 106 -188 236 -378
417 -610 109 -139 121 -151 128 -130 16 42 -27 187 -133 453 l-60 149 24 36
c38 57 173 361 223 501 77 217 95 259 136 320 39 59 187 203 309 302 90 73
354 196 579 272 41 13 143 48 225 76 268 92 361 102 710 75 105 -8 240 -15
301 -15 67 0 130 -6 158 -14 27 -8 118 -54 205 -102 205 -115 290 -156 380
-183 41 -13 95 -37 120 -53 73 -49 559 -543 634 -643 236 -317 311 -656 311
-1405 0 -481 -9 -549 -119 -870 -147 -428 -222 -542 -471 -707 -112 -75 -177
-147 -228 -249 -44 -87 -57 -166 -37 -227 6 -19 35 -61 64 -95 29 -33 90 -122
137 -198 47 -76 127 -201 177 -277 127 -191 154 -251 243 -547 57 -185 120
-340 270 -660 145 -310 201 -470 241 -696 18 -101 22 -159 22 -384 1 -243 -1
-285 -30 -505 -18 -132 -37 -312 -43 -400 -28 -437 -49 -552 -160 -884 -21
-64 -59 -183 -85 -266 -51 -164 -121 -362 -156 -440 -65 -148 -379 -628 -627
-960 -94 -125 -265 -296 -357 -357 -69 -45 -71 -46 -135 -41 -56 4 -80 0 -170
-30 -58 -19 -123 -43 -145 -52 -22 -9 -58 -24 -80 -33 -56 -23 -282 -139 -314
-161 -14 -10 -48 -26 -74 -36 -26 -10 -57 -29 -67 -43 -25 -30 -27 -108 -5
-140 11 -15 13 -27 6 -39 -23 -45 -23 -119 4 -346 30 -267 40 -308 110 -474
73 -172 143 -254 247 -290 52 -18 96 -11 161 25 38 22 50 35 59 67 18 60 13
123 -16 218 -14 46 -26 105 -26 129 0 24 -13 81 -30 126 -16 45 -52 168 -79
273 l-49 191 35 14 c19 9 99 33 176 55 194 54 396 118 432 136 38 19 85 63 85
79 0 7 44 43 98 80 196 136 375 340 570 649 38 61 89 138 114 170 40 54 95
138 209 320 128 206 207 378 303 668 86 256 117 376 226 892 182 854 196 933
225 1243 19 204 19 337 0 549 -52 574 -122 799 -400 1273 -56 96 -129 225
-162 286 -128 235 -259 424 -386 559 -37 39 -82 93 -100 120 -77 114 -127 195
-127 206 0 19 36 62 195 235 249 269 281 329 375 697 33 128 71 266 84 309 72
225 105 432 113 713 6 201 -7 363 -48 610 -82 494 -166 748 -326 989 -52 78
-127 161 -340 380 -151 155 -299 302 -330 328 -73 61 -150 101 -238 123 -103
27 -191 70 -370 180 -214 132 -255 147 -511 185 -115 17 -238 36 -274 42 -36
6 -139 11 -230 11 -187 0 -286 -18 -501 -92 -64 -22 -184 -59 -266 -81 -233
-62 -299 -97 -446 -236 -49 -47 -141 -124 -205 -172 -64 -48 -168 -134 -232
-192 -63 -58 -170 -150 -238 -204 -67 -54 -149 -127 -181 -162 -68 -75 -134
-198 -158 -297 l-16 -67 -94 100 c-234 248 -380 340 -648 411 -88 23 -191 51
-230 61 -94 26 -287 34 -467 19 -176 -14 -284 -33 -408 -71 -52 -16 -134 -34
-181 -39 -138 -16 -364 -80 -534 -153 -142 -61 -259 -99 -373 -121 -106 -20
-145 -22 -407 -21 -245 1 -303 4 -374 20 l-84 19 -3 75 c-5 103 -20 207 -44
303 -11 44 -20 97 -20 118 0 56 -38 133 -147 298 -106 160 -147 211 -309 378
-159 164 -357 298 -607 411 -207 94 -302 111 -384 68 -25 -12 -35 -12 -83 0
-68 18 -257 25 -371 14z"/>
<path d="M3775 13030 c-169 -31 -359 -110 -531 -221 -103 -67 -136 -105 -176
-205 -14 -33 -63 -115 -111 -182 -113 -161 -130 -206 -130 -342 0 -115 10
-179 53 -315 70 -225 162 -415 258 -533 26 -31 71 -102 101 -157 104 -193 221
-347 296 -391 25 -14 51 -24 59 -21 13 5 112 75 345 245 109 80 571 380 631
410 25 12 113 72 195 133 83 60 189 138 238 172 64 46 92 73 108 104 11 23 27
47 35 54 68 56 54 157 -45 333 -24 44 -57 113 -73 154 -72 188 -275 429 -443
527 -67 40 -397 182 -489 211 -90 28 -237 39 -321 24z"/>
<path d="M13695 12793 c-100 -14 -309 -57 -360 -74 -219 -76 -407 -219 -529
-402 -31 -47 -63 -88 -71 -91 -8 -3 -31 -38 -51 -78 -20 -40 -53 -98 -74 -128
-40 -59 -90 -193 -90 -242 0 -17 8 -46 17 -66 22 -47 106 -132 130 -132 11 0
37 -18 58 -41 22 -22 65 -54 95 -72 218 -124 402 -270 730 -583 181 -172 222
-209 244 -223 12 -7 33 -29 46 -48 37 -55 179 -141 260 -158 19 -4 40 -11 46
-16 6 -5 28 2 55 20 25 15 74 42 110 59 120 57 248 212 327 397 16 39 48 102
71 140 56 94 99 209 126 335 13 58 33 150 45 205 26 116 32 364 11 450 -20 82
-62 177 -102 230 -62 83 -258 276 -359 354 -144 111 -219 143 -375 161 -87 9
-298 11 -360 3z"/>
<path d="M4175 8470 c-387 -24 -595 -102 -767 -288 -78 -85 -102 -138 -106
-239 l-4 -82 -57 -5 c-192 -20 -329 -54 -487 -123 -319 -139 -554 -354 -699
-642 -25 -51 -67 -122 -93 -159 -94 -132 -188 -305 -222 -410 -102 -311 -51
-643 145 -937 79 -118 214 -245 433 -408 188 -140 294 -187 421 -187 42 0 137
-8 211 -17 194 -24 513 -24 600 0 113 31 186 68 285 143 166 125 344 348 443
557 30 62 97 229 143 352 110 301 107 732 -8 1088 -14 43 -23 80 -20 83 2 2
105 0 228 -6 123 -6 361 -15 529 -20 168 -4 340 -14 382 -20 104 -16 144 -8
190 41 44 47 47 70 13 115 -45 59 -48 59 -620 56 -501 -3 -665 3 -783 28 -47
11 -55 17 -87 64 -19 28 -55 73 -80 98 -25 25 -45 49 -45 54 0 8 112 3 535
-20 143 -8 418 -17 610 -20 312 -6 365 -4 490 13 191 26 236 37 289 71 58 37
92 89 110 170 8 36 20 83 26 106 13 47 2 105 -28 140 -31 36 -184 145 -255
181 -160 80 -361 124 -947 204 -166 23 -561 33 -775 19z"/>
<path d="M10835 8220 c-61 -4 -169 -15 -240 -24 -72 -9 -209 -18 -305 -20
-184 -3 -253 -14 -409 -63 -153 -48 -222 -117 -243 -245 -28 -170 53 -332 205
-409 185 -95 279 -111 632 -114 186 -1 362 -9 525 -23 135 -12 310 -26 390
-31 165 -11 610 -72 610 -84 0 -11 -109 -88 -200 -142 l-81 -48 -82 6 c-45 3
-228 15 -407 26 -179 11 -352 23 -385 26 -177 17 -493 76 -752 141 -89 23
-105 24 -130 12 -56 -27 -66 -103 -18 -134 13 -8 68 -26 122 -40 54 -14 141
-38 193 -54 236 -72 572 -120 845 -120 132 0 387 -18 397 -28 4 -4 -9 -27 -28
-52 -228 -286 -352 -688 -316 -1028 11 -108 46 -254 82 -342 10 -25 32 -90 50
-145 37 -119 82 -190 159 -250 31 -24 83 -72 116 -106 198 -204 455 -319 785
-349 79 -7 154 -20 181 -30 68 -27 349 -87 467 -100 101 -11 136 -10 292 11
314 42 646 250 825 519 59 88 135 227 135 247 0 4 7 21 15 36 8 15 28 76 45
135 70 243 101 521 81 746 -14 166 -50 332 -92 431 -89 210 -175 342 -314 480
-149 150 -288 239 -477 306 -59 20 -122 49 -140 62 -87 65 -257 135 -369 152
l-46 7 -6 59 c-8 86 -48 152 -130 214 -130 99 -307 182 -477 224 -101 24 -480
93 -635 116 -243 34 -585 44 -870 25z"/>
<path d="M7515 7924 c-202 -29 -377 -64 -453 -90 -79 -26 -126 -55 -297 -183
-93 -70 -215 -161 -270 -201 -129 -95 -178 -141 -230 -215 -94 -133 -120 -214
-119 -375 0 -170 29 -256 139 -426 46 -70 59 -84 98 -99 38 -14 51 -15 81 -5
78 25 109 99 125 300 18 218 69 437 131 561 55 112 149 222 265 310 108 83
139 94 375 130 200 30 342 34 490 14 69 -9 179 -22 245 -30 157 -18 234 -36
332 -79 90 -40 148 -46 193 -20 61 37 79 123 38 184 -41 61 -210 127 -407 160
-64 11 -174 29 -246 41 -124 20 -413 34 -490 23z"/>
<path d="M7652 7245 c-100 -18 -168 -44 -211 -81 -35 -31 -36 -34 -36 -101 0
-58 4 -74 25 -100 48 -60 153 -93 296 -93 117 0 200 21 277 70 114 72 112 221
-3 280 -75 38 -219 48 -348 25z"/>
</g>
</svg>
